HIERARCHY
ROOT Hips
{
	OFFSET -3.958830 18.904000 13.208200
	CHANNELS 6 Xposition Yposition Zposition Zrotation Yrotation Xrotation 
	JOINT LHipJoint
	{
		OFFSET 0.000000 0.000000 0.000000
		CHANNELS 3 Zrotation Yrotation Xrotation
		JOINT LeftUpLeg
		{
			OFFSET 1.800000 -1.400000 0.085000
			CHANNELS 3 Zrotation Yrotation Xrotation
			JOINT LeftLeg
			{
				OFFSET 2.215000 -6.000000 0.000000
				CHANNELS 3 Zrotation Yrotation Xrotation
				JOINT LeftFoot
				{
					OFFSET 2.500000 -6.900000 0.000000
					CHANNELS 3 Zrotation Yrotation Xrotation
					JOINT LeftToeBase
					{
						OFFSET 0.200000 -0.500000 1.950000
						CHANNELS 3 Zrotation Yrotation Xrotation
						End Site
						{
							OFFSET 0.000000 0.000000 0.000000
						}
					}
				}
			}
		}
	}
	JOINT RHipJoint
	{
		OFFSET 0.000000 0.000000 0.000000
		CHANNELS 3 Zrotation Yrotation Xrotation
		JOINT RightUpLeg
		{
			OFFSET -1.800000 -1.400000 0.085000
			CHANNELS 3 Zrotation Yrotation Xrotation
			JOINT RightLeg
			{
				OFFSET -2.215000 -6.000000 0.000000
				CHANNELS 3 Zrotation Yrotation Xrotation
				JOINT RightFoot
				{
					OFFSET -2.500000 -6.900000 0.000000
					CHANNELS 3 Zrotation Yrotation Xrotation
					JOINT RightToeBase
					{
						OFFSET -0.200000 -0.500000 1.950000
						CHANNELS 3 Zrotation Yrotation Xrotation
						End Site
						{
							OFFSET 0.000000 0.000000 0.000000
						}
					}
				}
			}
		}
	}
	JOINT LowerBack
	{
		OFFSET 0.000000 0.000000 0.000000
		CHANNELS 3 Zrotation Yrotation Xrotation
		JOINT Spine
		{
			OFFSET -0.087000 1.940000 -0.288900
			CHANNELS 3 Zrotation Yrotation Xrotation
			JOINT Spine1
			{
				OFFSET 0.000000 1.950000 0.060000
				CHANNELS 3 Zrotation Yrotation Xrotation
				JOINT Neck
				{
					OFFSET 0.000000 0.000000 0.000000
					CHANNELS 3 Zrotation Yrotation Xrotation
					JOINT Neck1
					{
						OFFSET 0.000000 1.600000 0.340000
						CHANNELS 3 Zrotation Yrotation Xrotation
						JOINT Head
						{
							OFFSET 0.000000 1.667000 -0.240000
							CHANNELS 3 Zrotation Yrotation Xrotation
							End Site
							{
								OFFSET 0.000000 0.000000 0.000000
							}
						}
					}
				}
				JOINT LeftShoulder
				{
					OFFSET 0.000000 0.000000 0.000000
					CHANNELS 3 Zrotation Yrotation Xrotation
					JOINT LeftArm
					{
						OFFSET 2.700000 1.550000 -0.730000
						CHANNELS 3 Zrotation Yrotation Xrotation
						JOINT LeftForeArm
						{
							OFFSET 5.450000 0.000000 0.000000
							CHANNELS 3 Zrotation Yrotation Xrotation
							JOINT LeftHand
							{
								OFFSET 3.450000 0.000000 0.000000
								CHANNELS 3 Zrotation Yrotation Xrotation
								JOINT LeftHandIndex1
								{
									OFFSET 0.750000 0.000000 0.000000
									CHANNELS 3 Zrotation Yrotation Xrotation
									End Site
									{
										OFFSET 0.000000 0.000000 0.000000
									}
								}
							}
						}
					}
				}
				JOINT RightShoulder
				{
					OFFSET 0.000000 0.000000 0.000000
					CHANNELS 3 Zrotation Yrotation Xrotation
					JOINT RightArm
					{
						OFFSET -2.700000 1.550000 -0.730000
						CHANNELS 3 Zrotation Yrotation Xrotation
						JOINT RightForeArm
						{
							OFFSET -5.450000 0.000000 0.000000
							CHANNELS 3 Zrotation Yrotation Xrotation
							JOINT RightHand
							{
								OFFSET -3.450000 0.000000 0.000000
								CHANNELS 3 Zrotation Yrotation Xrotation
								JOINT RightHandIndex1
								{
									OFFSET -0.750000 0.000000 0.000000
									CHANNELS 3 Zrotation Yrotation Xrotation
									End Site
									{
										OFFSET 0.000000 0.000000 0.000000
									}
								}
							}
						}
					}
				}
			}
		}
	}
}
MOTION
Frames: 4
Frame Time: 0.016667
0.047780 17.594650 -0.783220 0.110282 2.859913 0.137484 -15.159857 13.346415 2.604924 4.362203 -1.577837 -13.015736 -7.328479 6.881072 16.844845 0.108364 4.419202 3.146517 -0.305870 -0.511280 -0.068280 18.315547 -10.684403 2.894998 -8.755544 4.714756 -27.841910 5.758648 -9.703346 43.048263 -0.163338 -6.675897 1.845920 -0.215670 0.539440 0.120210 -3.694038 -1.852953 -6.914681 6.761172 -2.020241 4.701589 -3.679433 -1.579992 2.298857 0.892483 -4.478157 -5.942139 -8.842345 4.508872 28.006738 -1.200080 2.486080 10.960880 -24.127281 0.507462 1.059440 -51.703735 0.128510 -7.993173 0.395756 -24.346136 -1.345750 -4.060435 3.144903 -0.239840 0.372360 -0.405570 -0.044540 22.314040 2.403824 2.981928 52.587164 -2.481823 -9.837206 11.702300 24.317405 -0.121278 2.763652 -1.499668 -0.203550 -0.072800 0.124030 0.106190 
0.047940 17.597230 -0.778030 -0.037959 2.837519 0.126404 -15.144716 13.344078 2.605227 4.517057 -1.551063 -12.919621 -7.421330 6.888053 16.691285 0.121964 4.418092 3.147633 -0.309300 -0.509960 -0.079440 18.326515 -10.717178 2.867815 -8.601052 4.601305 -27.403409 5.895433 -9.663317 42.492528 -0.148333 -6.604451 1.873414 -0.218350 0.544170 0.123130 -3.732428 -1.806527 -6.894766 7.105818 -2.016483 4.574573 -3.799119 -1.574318 2.467829 0.868340 -4.531695 -6.033307 -8.922641 4.499899 27.945234 -1.075640 2.362170 11.130600 -23.876629 0.422564 1.179546 -51.689638 0.129651 -8.105000 -0.014122 -25.179118 -1.295547 -4.055358 3.163417 -0.251760 0.375140 -0.408660 -0.041630 22.081126 2.520005 3.045293 52.494179 -2.380292 -9.712953 11.616038 24.120974 -0.137168 2.769288 -1.505052 -0.195540 -0.077750 0.125190 0.114910 
0.038810 17.604610 -0.771500 -0.132661 2.741527 0.243958 -15.139212 13.352451 2.622848 4.737978 -1.538159 -12.939967 -7.689451 6.923546 16.404874 0.125951 4.442882 3.148475 -0.330280 -0.533050 -0.108970 18.326825 -10.765675 2.797356 -8.122568 4.384591 -26.595307 5.678368 -9.286455 41.237136 -0.089613 -6.392682 1.964260 -0.226720 0.572600 0.125880 -3.739376 -1.779031 -6.841410 7.204586 -1.918601 4.245145 -3.546119 -1.504769 2.808705 0.710903 -4.663028 -6.193280 -9.110336 4.398569 27.538780 -1.123960 2.149690 11.624830 -23.131857 0.387404 1.386888 -52.112338 0.018512 -8.330356 0.019217 -26.734086 -1.375003 -4.067807 3.177003 -0.271000 0.397900 -0.434290 -0.038130 21.658679 2.703473 3.151819 52.135060 -2.248762 -9.510336 11.421622 23.901611 -0.161391 2.761332 -1.513591 -0.201110 -0.077510 0.139890 0.122620 
0.031140 17.618190 -0.769920 -0.333727 2.685521 0.312242 -15.119658 13.383892 2.641362 4.866341 -1.502790 -12.890457 -7.612889 6.813784 15.942543 0.128195 4.397239 3.169071 -0.347690 -0.544510 -0.138310 18.333399 -10.858439 2.696453 -7.449326 3.967414 -25.254497 5.396741 -8.710176 39.036232 -0.005310 -6.028345 2.113067 -0.233700 0.591490 0.127070 -3.777835 -1.732943 -6.770589 7.655712 -1.845738 3.896564 -3.425022 -1.457614 3.279424 0.544775 -4.888546 -6.441714 -9.507816 4.283576 27.280277 -1.242040 1.939870 12.109390 -22.221745 0.217643 1.659151 -52.319301 -0.281773 -8.418545 -0.907827 -28.481036 -1.249947 -4.073248 3.203092 -0.296520 0.417160 -0.455570 -0.037150 21.059101 3.053763 3.343419 51.669817 -2.043559 -9.221966 11.267808 23.593702 -0.179632 2.757999 -1.523667 -0.196590 -0.083090 0.151170 0.133130 
